<svg width="56" height="56" viewBox="0 0 56 56" fill="none" xmlns="http://www.w3.org/2000/svg">
<rect x="0.5" y="0.5" width="78" height="73" rx="36.5" fill="#B81D1D"/>
<path d="M47.4545 22H31.5455C30.3399 22 29.1838 22.4515 28.3313 23.2553C27.4789 24.059 27 25.1491 27 26.2857V43.4286C27 44.5652 27.4789 45.6553 28.3313 46.459C29.1838 47.2628 30.3399 47.7143 31.5455 47.7143H32.6818L30.6364 50.2857C30.5468 50.3983 30.4817 50.5264 30.4446 50.6627C30.4076 50.799 30.3994 50.9408 30.4205 51.0801C30.4416 51.2194 30.4916 51.3534 30.5676 51.4745C30.6437 51.5955 30.7443 51.7013 30.8636 51.7857C30.983 51.8701 31.1189 51.9316 31.2634 51.9665C31.408 52.0014 31.5584 52.0091 31.7062 51.9892C31.8539 51.9693 31.996 51.9222 32.1244 51.8505C32.2528 51.7788 32.365 51.684 32.4545 51.5714L35.5227 47.7143H43.4773L46.5455 51.5714C46.7263 51.7988 46.9955 51.949 47.2938 51.9892C47.5922 52.0294 47.8953 51.9562 48.1364 51.7857C48.3775 51.6152 48.5369 51.3614 48.5795 51.0801C48.6221 50.7988 48.5445 50.513 48.3636 50.2857L46.3182 47.7143H47.4545C48.6601 47.7143 49.8162 47.2628 50.6687 46.459C51.5211 45.6553 52 44.5652 52 43.4286V26.2857C52 25.1491 51.5211 24.059 50.6687 23.2553C49.8162 22.4515 48.6601 22 47.4545 22ZM29.2727 34.8571V29.5H38.3636V34.8571H29.2727ZM40.6364 29.5H49.7273V34.8571H40.6364V29.5ZM31.5455 24.1429H47.4545C48.0573 24.1429 48.6354 24.3686 49.0616 24.7705C49.4878 25.1723 49.7273 25.7174 49.7273 26.2857V27.3571H29.2727V26.2857C29.2727 25.7174 29.5122 25.1723 29.9384 24.7705C30.3646 24.3686 30.9427 24.1429 31.5455 24.1429ZM47.4545 45.5714H31.5455C30.9427 45.5714 30.3646 45.3457 29.9384 44.9438C29.5122 44.5419 29.2727 43.9969 29.2727 43.4286V37H49.7273V43.4286C49.7273 43.9969 49.4878 44.5419 49.0616 44.9438C48.6354 45.3457 48.0573 45.5714 47.4545 45.5714ZM34.9545 41.8214C34.9545 42.1393 34.8546 42.45 34.6673 42.7143C34.48 42.9786 34.2138 43.1846 33.9023 43.3062C33.5908 43.4279 33.2481 43.4597 32.9175 43.3977C32.5868 43.3357 32.2831 43.1826 32.0447 42.9578C31.8063 42.7331 31.644 42.4467 31.5782 42.135C31.5124 41.8232 31.5462 41.5001 31.6752 41.2064C31.8042 40.9127 32.0227 40.6617 32.303 40.4851C32.5833 40.3085 32.9129 40.2143 33.25 40.2143C33.7021 40.2143 34.1356 40.3836 34.4553 40.685C34.775 40.9864 34.9545 41.3952 34.9545 41.8214ZM47.4545 41.8214C47.4545 42.1393 47.3546 42.45 47.1673 42.7143C46.98 42.9786 46.7138 43.1846 46.4023 43.3062C46.0908 43.4279 45.7481 43.4597 45.4175 43.3977C45.0868 43.3357 44.7831 43.1826 44.5447 42.9578C44.3063 42.7331 44.144 42.4467 44.0782 42.135C44.0124 41.8232 44.0462 41.5001 44.1752 41.2064C44.3042 40.9127 44.5227 40.6617 44.803 40.4851C45.0833 40.3085 45.4129 40.2143 45.75 40.2143C46.2021 40.2143 46.6356 40.3836 46.9553 40.685C47.275 40.9864 47.4545 41.3952 47.4545 41.8214Z" fill="white"/>
<rect x="0.5" y="0.5" width="78" height="73" rx="36.5" stroke="#B81D1D"/>
</svg>
